<?xml version="1.0" encoding="UTF-8"?>
<!DOCTYPE svg PUBLIC "-//W3C//DTD SVG 1.1//EN" "http://www.w3.org/Graphics/SVG/1.1/DTD/svg11.dtd">
<svg version="1.2" width="62.44mm" height="62.44mm" viewBox="0 0 6244 6244" preserveAspectRatio="xMidYMid" fill-rule="evenodd" stroke-width="28.222" stroke-linejoin="round" xmlns="http://www.w3.org/2000/svg" xmlns:ooo="http://xml.openoffice.org/svg/export" xmlns:xlink="http://www.w3.org/1999/xlink" xmlns:presentation="http://sun.com/xmlns/staroffice/presentation" xmlns:smil="http://www.w3.org/2001/SMIL20/" xmlns:anim="urn:oasis:names:tc:opendocument:xmlns:animation:1.0" xmlns:svg="urn:oasis:names:tc:opendocument:xmlns:svg-compatible:1.0" xml:space="preserve">
 <defs class="ClipPathGroup">
  <clipPath id="presentation_clip_path" clipPathUnits="userSpaceOnUse">
   <rect x="0" y="0" width="6244" height="6244"/>
  </clipPath>
  <clipPath id="presentation_clip_path_shrink" clipPathUnits="userSpaceOnUse">
   <rect x="6" y="6" width="6232" height="6232"/>
  </clipPath>
 </defs>
 <defs class="TextShapeIndex">
  <g ooo:slide="id1" ooo:id-list="id3"/>
 </defs>
 <defs class="EmbeddedBulletChars">
  <g id="bullet-char-template-57356" transform="scale(0.00048828125,-0.00048828125)">
   <path d="M 580,1141 L 1163,571 580,0 -4,571 580,1141 Z"/>
  </g>
  <g id="bullet-char-template-57354" transform="scale(0.00048828125,-0.00048828125)">
   <path d="M 8,1128 L 1137,1128 1137,0 8,0 8,1128 Z"/>
  </g>
  <g id="bullet-char-template-10146" transform="scale(0.00048828125,-0.00048828125)">
   <path d="M 174,0 L 602,739 174,1481 1456,739 174,0 Z M 1358,739 L 309,1346 659,739 1358,739 Z"/>
  </g>
  <g id="bullet-char-template-10132" transform="scale(0.00048828125,-0.00048828125)">
   <path d="M 2015,739 L 1276,0 717,0 1260,543 174,543 174,936 1260,936 717,1481 1274,1481 2015,739 Z"/>
  </g>
  <g id="bullet-char-template-10007" transform="scale(0.00048828125,-0.00048828125)">
   <path d="M 0,-2 C -7,14 -16,27 -25,37 L 356,567 C 262,823 215,952 215,954 215,979 228,992 255,992 264,992 276,990 289,987 310,991 331,999 354,1012 L 381,999 492,748 772,1049 836,1024 860,1049 C 881,1039 901,1025 922,1006 886,937 835,863 770,784 769,783 710,716 594,584 L 774,223 C 774,196 753,168 711,139 L 727,119 C 717,90 699,76 672,76 641,76 570,178 457,381 L 164,-76 C 142,-110 111,-127 72,-127 30,-127 9,-110 8,-76 1,-67 -2,-52 -2,-32 -2,-23 -1,-13 0,-2 Z"/>
  </g>
  <g id="bullet-char-template-10004" transform="scale(0.00048828125,-0.00048828125)">
   <path d="M 285,-33 C 182,-33 111,30 74,156 52,228 41,333 41,471 41,549 55,616 82,672 116,743 169,778 240,778 293,778 328,747 346,684 L 369,508 C 377,444 397,411 428,410 L 1163,1116 C 1174,1127 1196,1133 1229,1133 1271,1133 1292,1118 1292,1087 L 1292,965 C 1292,929 1282,901 1262,881 L 442,47 C 390,-6 338,-33 285,-33 Z"/>
  </g>
  <g id="bullet-char-template-9679" transform="scale(0.00048828125,-0.00048828125)">
   <path d="M 813,0 C 632,0 489,54 383,161 276,268 223,411 223,592 223,773 276,916 383,1023 489,1130 632,1184 813,1184 992,1184 1136,1130 1245,1023 1353,916 1407,772 1407,592 1407,412 1353,268 1245,161 1136,54 992,0 813,0 Z"/>
  </g>
  <g id="bullet-char-template-8226" transform="scale(0.00048828125,-0.00048828125)">
   <path d="M 346,457 C 273,457 209,483 155,535 101,586 74,649 74,723 74,796 101,859 155,911 209,963 273,989 346,989 419,989 480,963 531,910 582,859 608,796 608,723 608,648 583,586 532,535 482,483 420,457 346,457 Z"/>
  </g>
  <g id="bullet-char-template-8211" transform="scale(0.00048828125,-0.00048828125)">
   <path d="M -4,459 L 1135,459 1135,606 -4,606 -4,459 Z"/>
  </g>
  <g id="bullet-char-template-61548" transform="scale(0.00048828125,-0.00048828125)">
   <path d="M 173,740 C 173,903 231,1043 346,1159 462,1274 601,1332 765,1332 928,1332 1067,1274 1183,1159 1299,1043 1357,903 1357,740 1357,577 1299,437 1183,322 1067,206 928,148 765,148 601,148 462,206 346,322 231,437 173,577 173,740 Z"/>
  </g>
 </defs>
 <g>
  <g id="id2" class="Master_Slide">
   <g id="bg-id2" class="Background"/>
   <g id="bo-id2" class="BackgroundObjects"/>
  </g>
 </g>
 <g class="SlideGroup">
  <g>
   <g id="container-id1">
    <g id="id1" class="Slide" clip-path="url(#presentation_clip_path)">
     <g class="Page">
      <g class="Graphic">
       <g id="id3">
        <rect class="BoundingBox" stroke="none" fill="none" x="-490" y="-751" width="7501" height="7501"/>
        <defs>
         <clipPath id="clip_path_1" clipPathUnits="userSpaceOnUse">
          <path d="M 2385,3810 C 2385,3809 2386,3809 2386,3809 2387,3809 2387,3809 2387,3810 2387,3810 2387,3811 2386,3811 2386,3811 2385,3810 2385,3810 L 2385,3810 Z "/>
         </clipPath>
        </defs>
        <g clip-path="url(#clip_path_1)">
         <path fill="rgb(21,186,250)" stroke="none" d="M 986,2667 L 1101,2761 1100,2762 985,2668 986,2667 Z "/>
         <path fill="rgb(22,183,249)" stroke="none" d="M 1029,2702 L 1144,2796 1143,2797 1028,2703 1029,2702 Z "/>
         <path fill="rgb(22,181,248)" stroke="none" d="M 1072,2737 L 1187,2831 1186,2832 1071,2738 1072,2737 Z "/>
         <path fill="rgb(23,178,247)" stroke="none" d="M 1115,2772 L 1230,2866 1229,2867 1114,2773 1115,2772 Z "/>
         <path fill="rgb(23,175,246)" stroke="none" d="M 1158,2807 L 1273,2901 1272,2902 1157,2808 1158,2807 Z "/>
         <path fill="rgb(24,172,245)" stroke="none" d="M 1201,2842 L 1316,2936 1315,2937 1200,2844 1201,2842 Z "/>
         <path fill="rgb(25,170,245)" stroke="none" d="M 1244,2877 L 1359,2971 1358,2972 1243,2879 1244,2877 Z "/>
         <path fill="rgb(25,167,244)" stroke="none" d="M 1287,2912 L 1402,3006 1401,3007 1286,2914 1287,2912 Z "/>
         <path fill="rgb(26,164,243)" stroke="none" d="M 1330,2947 L 1445,3041 1444,3042 1329,2949 1330,2947 Z "/>
         <path fill="rgb(27,162,242)" stroke="none" d="M 1373,2982 L 1488,3076 1487,3078 1372,2984 1373,2982 Z "/>
         <path fill="rgb(27,159,241)" stroke="none" d="M 1416,3017 L 1531,3111 1530,3113 1415,3019 1416,3017 Z "/>
         <path fill="rgb(28,156,240)" stroke="none" d="M 1459,3052 L 1574,3146 1573,3148 1458,3054 1459,3052 Z "/>
         <path fill="rgb(28,154,239)" stroke="none" d="M 1502,3087 L 1617,3181 1616,3183 1501,3089 1502,3087 Z "/>
         <path fill="rgb(29,151,238)" stroke="none" d="M 1545,3122 L 1660,3216 1659,3218 1544,3124 1545,3122 Z "/>
         <path fill="rgb(30,148,237)" stroke="none" d="M 1588,3157 L 1703,3251 1702,3253 1586,3159 1588,3157 Z "/>
         <path fill="rgb(30,145,236)" stroke="none" d="M 1631,3192 L 1746,3286 1745,3288 1629,3194 1631,3192 Z "/>
         <path fill="rgb(31,143,235)" stroke="none" d="M 1674,3227 L 1789,3321 1788,3323 1672,3229 1674,3227 Z "/>
         <path fill="rgb(31,140,235)" stroke="none" d="M 1717,3262 L 1832,3356 1831,3358 1715,3264 1717,3262 Z "/>
         <path fill="rgb(32,137,234)" stroke="none" d="M 1760,3297 L 1875,3391 1873,3393 1758,3299 1760,3297 Z "/>
         <path fill="rgb(33,135,233)" stroke="none" d="M 1803,3332 L 1918,3426 1916,3428 1801,3334 1803,3332 Z "/>
         <path fill="rgb(33,132,232)" stroke="none" d="M 1846,3367 L 1961,3461 1959,3463 1844,3369 1846,3367 Z "/>
         <path fill="rgb(34,129,231)" stroke="none" d="M 1889,3403 L 2004,3496 2002,3498 1887,3404 1889,3403 Z "/>
         <path fill="rgb(34,127,230)" stroke="none" d="M 1932,3438 L 2047,3531 2045,3533 1930,3439 1932,3438 Z "/>
         <path fill="rgb(35,124,229)" stroke="none" d="M 1975,3473 L 2090,3566 2088,3568 1973,3474 1975,3473 Z "/>
         <path fill="rgb(36,121,228)" stroke="none" d="M 2017,3508 L 2133,3601 2131,3603 2016,3509 2017,3508 Z "/>
         <path fill="rgb(36,118,227)" stroke="none" d="M 2060,3543 L 2176,3636 2174,3638 2059,3544 2060,3543 Z "/>
         <path fill="rgb(37,116,226)" stroke="none" d="M 2103,3578 L 2219,3672 2217,3673 2102,3579 2103,3578 Z "/>
         <path fill="rgb(38,113,225)" stroke="none" d="M 2146,3613 L 2261,3707 2260,3708 2145,3614 2146,3613 Z "/>
         <path fill="rgb(38,110,225)" stroke="none" d="M 2189,3648 L 2304,3742 2303,3743 2188,3649 2189,3648 Z "/>
         <path fill="rgb(39,108,224)" stroke="none" d="M 2232,3683 L 2347,3777 2346,3778 2231,3684 2232,3683 Z "/>
         <path fill="rgb(39,105,223)" stroke="none" d="M 2275,3718 L 2390,3812 2389,3813 2274,3719 2275,3718 Z "/>
         <path fill="rgb(40,102,222)" stroke="none" d="M 2318,3753 L 2433,3847 2432,3848 2317,3754 2318,3753 Z "/>
         <path fill="rgb(41,99,221)" stroke="none" d="M 2361,3788 L 2476,3882 2475,3883 2360,3789 2361,3788 Z "/>
         <path fill="rgb(41,97,220)" stroke="none" d="M 2404,3823 L 2519,3917 2518,3918 2403,3825 2404,3823 Z "/>
         <path fill="rgb(42,94,219)" stroke="none" d="M 2447,3858 L 2562,3952 2561,3953 2446,3860 2447,3858 Z "/>
         <path fill="rgb(42,91,218)" stroke="none" d="M 2490,3893 L 2605,3987 2604,3988 2489,3895 2490,3893 Z "/>
         <path fill="rgb(43,89,217)" stroke="none" d="M 2533,3928 L 2648,4022 2647,4023 2532,3930 2533,3928 Z "/>
         <path fill="rgb(44,86,216)" stroke="none" d="M 2576,3963 L 2691,4057 2690,4058 2575,3965 2576,3963 Z "/>
         <path fill="rgb(44,83,215)" stroke="none" d="M 2619,3998 L 2734,4092 2733,4094 2618,4000 2619,3998 Z "/>
         <path fill="rgb(45,81,215)" stroke="none" d="M 2662,4033 L 2777,4127 2776,4129 2661,4035 2662,4033 Z "/>
         <path fill="rgb(46,78,214)" stroke="none" d="M 2705,4068 L 2820,4162 2819,4164 2704,4070 2705,4068 Z "/>
         <path fill="rgb(46,75,213)" stroke="none" d="M 2748,4103 L 2863,4197 2862,4199 2747,4105 2748,4103 Z "/>
         <path fill="rgb(47,72,212)" stroke="none" d="M 2791,4138 L 2906,4232 2905,4234 2790,4140 2791,4138 Z "/>
         <path fill="rgb(47,70,211)" stroke="none" d="M 2834,4173 L 2949,4267 2948,4269 2833,4175 2834,4173 Z "/>
        </g>
        <path fill="none" stroke="rgb(0,0,0)" stroke-width="8" stroke-linejoin="miter" d="M 2385,3810 C 2385,3809 2386,3809 2386,3809 2387,3809 2387,3809 2387,3810 2387,3810 2387,3811 2386,3811 2386,3811 2385,3810 2385,3810 Z "/>
        <defs>
         <clipPath id="clip_path_2" clipPathUnits="userSpaceOnUse">
          <path d="M 1450,3866 C 1414,3865 1242,3442 1253,2854 1263,2265 1509,1592 2151,1162 2762,753 3281,691 3968,825 4611,951 5142,1565 5150,1610 5163,1689 4536,2191 4476,2186 4449,2184 4092,1744 3751,1687 3735,1684 3245,1506 2705,1864 1653,2562 2379,3802 2379,3802 2379,3802 2207,3887 1450,3866 L 1450,3866 Z "/>
         </clipPath>
        </defs>
        <g clip-path="url(#clip_path_2)">
         <path fill="rgb(21,186,250)" stroke="none" d="M 3094,-141 L 3236,-25 616,3189 474,3073 3094,-141 Z "/>
         <path fill="rgb(21,186,250)" stroke="none" d="M 3229,-31 L 3251,-13 631,3201 609,3183 3229,-31 Z "/>
         <path fill="rgb(21,185,250)" stroke="none" d="M 3244,-19 L 3266,-1 646,3213 623,3195 3244,-19 Z "/>
         <path fill="rgb(21,184,249)" stroke="none" d="M 3259,-7 L 3281,11 660,3225 638,3207 3259,-7 Z "/>
         <path fill="rgb(22,183,249)" stroke="none" d="M 3273,5 L 3296,23 675,3237 653,3219 3273,5 Z "/>
         <path fill="rgb(22,182,249)" stroke="none" d="M 3288,17 L 3310,35 690,3249 668,3231 3288,17 Z "/>
         <path fill="rgb(22,181,248)" stroke="none" d="M 3303,29 L 3325,47 705,3261 683,3243 3303,29 Z "/>
         <path fill="rgb(22,180,248)" stroke="none" d="M 3318,41 L 3340,59 720,3273 697,3255 3318,41 Z "/>
         <path fill="rgb(22,179,248)" stroke="none" d="M 3332,53 L 3355,71 734,3285 712,3267 3332,53 Z "/>
         <path fill="rgb(23,179,248)" stroke="none" d="M 3347,65 L 3369,83 749,3297 727,3279 3347,65 Z "/>
         <path fill="rgb(23,178,247)" stroke="none" d="M 3362,77 L 3384,95 764,3309 742,3291 3362,77 Z "/>
         <path fill="rgb(23,177,247)" stroke="none" d="M 3377,89 L 3399,107 779,3321 756,3303 3377,89 Z "/>
         <path fill="rgb(23,176,247)" stroke="none" d="M 3392,101 L 3414,119 793,3333 771,3315 3392,101 Z "/>
         <path fill="rgb(24,175,246)" stroke="none" d="M 3406,113 L 3428,131 808,3345 786,3327 3406,113 Z "/>
         <path fill="rgb(24,174,246)" stroke="none" d="M 3421,125 L 3443,143 823,3357 801,3339 3421,125 Z "/>
         <path fill="rgb(24,173,246)" stroke="none" d="M 3436,137 L 3458,155 838,3369 816,3351 3436,137 Z "/>
         <path fill="rgb(24,172,245)" stroke="none" d="M 3451,149 L 3473,167 853,3381 830,3363 3451,149 Z "/>
         <path fill="rgb(24,171,245)" stroke="none" d="M 3465,161 L 3488,179 867,3393 845,3375 3465,161 Z "/>
         <path fill="rgb(25,170,245)" stroke="none" d="M 3480,173 L 3502,192 882,3405 860,3387 3480,173 Z "/>
         <path fill="rgb(25,169,244)" stroke="none" d="M 3495,185 L 3517,204 897,3417 875,3399 3495,185 Z "/>
         <path fill="rgb(25,168,244)" stroke="none" d="M 3510,197 L 3532,216 912,3429 889,3411 3510,197 Z "/>
         <path fill="rgb(25,167,244)" stroke="none" d="M 3524,210 L 3547,228 926,3442 904,3423 3524,210 Z "/>
         <path fill="rgb(25,166,243)" stroke="none" d="M 3539,222 L 3561,240 941,3454 919,3435 3539,222 Z "/>
         <path fill="rgb(26,166,243)" stroke="none" d="M 3554,234 L 3576,252 956,3466 934,3448 3554,234 Z "/>
         <path fill="rgb(26,165,243)" stroke="none" d="M 3569,246 L 3591,264 971,3478 948,3460 3569,246 Z "/>
         <path fill="rgb(26,164,243)" stroke="none" d="M 3584,258 L 3606,276 985,3490 963,3472 3584,258 Z "/>
         <path fill="rgb(26,163,242)" stroke="none" d="M 3598,270 L 3621,288 1000,3502 978,3484 3598,270 Z "/>
         <path fill="rgb(26,162,242)" stroke="none" d="M 3613,282 L 3635,300 1015,3514 993,3496 3613,282 Z "/>
         <path fill="rgb(27,161,242)" stroke="none" d="M 3628,294 L 3650,312 1030,3526 1008,3508 3628,294 Z "/>
         <path fill="rgb(27,160,241)" stroke="none" d="M 3643,306 L 3665,324 1045,3538 1022,3520 3643,306 Z "/>
         <path fill="rgb(27,159,241)" stroke="none" d="M 3657,318 L 3680,336 1059,3550 1037,3532 3657,318 Z "/>
         <path fill="rgb(27,158,241)" stroke="none" d="M 3672,330 L 3694,348 1074,3562 1052,3544 3672,330 Z "/>
         <path fill="rgb(28,157,240)" stroke="none" d="M 3687,342 L 3709,360 1089,3574 1067,3556 3687,342 Z "/>
         <path fill="rgb(28,156,240)" stroke="none" d="M 3702,354 L 3724,372 1104,3586 1081,3568 3702,354 Z "/>
         <path fill="rgb(28,155,240)" stroke="none" d="M 3716,366 L 3739,384 1118,3598 1096,3580 3716,366 Z "/>
         <path fill="rgb(28,154,239)" stroke="none" d="M 3731,378 L 3753,396 1133,3610 1111,3592 3731,378 Z "/>
         <path fill="rgb(28,153,239)" stroke="none" d="M 3746,390 L 3768,408 1148,3622 1126,3604 3746,390 Z "/>
         <path fill="rgb(29,153,239)" stroke="none" d="M 3761,402 L 3783,420 1163,3634 1140,3616 3761,402 Z "/>
         <path fill="rgb(29,152,238)" stroke="none" d="M 3776,414 L 3798,432 1177,3646 1155,3628 3776,414 Z "/>
         <path fill="rgb(29,151,238)" stroke="none" d="M 3790,426 L 3813,444 1192,3658 1170,3640 3790,426 Z "/>
         <path fill="rgb(29,150,238)" stroke="none" d="M 3805,438 L 3827,456 1207,3670 1185,3652 3805,438 Z "/>
         <path fill="rgb(29,149,237)" stroke="none" d="M 3820,450 L 3842,469 1222,3682 1200,3664 3820,450 Z "/>
         <path fill="rgb(30,148,237)" stroke="none" d="M 3835,462 L 3857,481 1237,3694 1214,3676 3835,462 Z "/>
         <path fill="rgb(30,147,237)" stroke="none" d="M 3849,474 L 3872,493 1251,3706 1229,3688 3849,474 Z "/>
         <path fill="rgb(30,146,237)" stroke="none" d="M 3864,487 L 3886,505 1266,3719 1244,3700 3864,487 Z "/>
         <path fill="rgb(30,145,236)" stroke="none" d="M 3879,499 L 3901,517 1281,3731 1259,3712 3879,499 Z "/>
         <path fill="rgb(30,144,236)" stroke="none" d="M 3894,511 L 3916,529 1296,3743 1273,3725 3894,511 Z "/>
         <path fill="rgb(31,143,236)" stroke="none" d="M 3909,523 L 3931,541 1310,3755 1288,3737 3909,523 Z "/>
         <path fill="rgb(31,142,235)" stroke="none" d="M 3923,535 L 3945,553 1325,3767 1303,3749 3923,535 Z "/>
         <path fill="rgb(31,141,235)" stroke="none" d="M 3938,547 L 3960,565 1340,3779 1318,3761 3938,547 Z "/>
         <path fill="rgb(31,140,235)" stroke="none" d="M 3953,559 L 3975,577 1355,3791 1333,3773 3953,559 Z "/>
         <path fill="rgb(32,140,234)" stroke="none" d="M 3968,571 L 3990,589 1370,3803 1347,3785 3968,571 Z "/>
         <path fill="rgb(32,139,234)" stroke="none" d="M 3982,583 L 4005,601 1384,3815 1362,3797 3982,583 Z "/>
         <path fill="rgb(32,138,234)" stroke="none" d="M 3997,595 L 4019,613 1399,3827 1377,3809 3997,595 Z "/>
         <path fill="rgb(32,137,233)" stroke="none" d="M 4012,607 L 4034,625 1414,3839 1392,3821 4012,607 Z "/>
         <path fill="rgb(32,136,233)" stroke="none" d="M 4027,619 L 4049,637 1429,3851 1406,3833 4027,619 Z "/>
         <path fill="rgb(33,135,233)" stroke="none" d="M 4041,631 L 4064,649 1443,3863 1421,3845 4041,631 Z "/>
         <path fill="rgb(33,134,233)" stroke="none" d="M 4056,643 L 4078,661 1458,3875 1436,3857 4056,643 Z "/>
         <path fill="rgb(33,133,232)" stroke="none" d="M 4071,655 L 4093,673 1473,3887 1451,3869 4071,655 Z "/>
         <path fill="rgb(33,132,232)" stroke="none" d="M 4086,667 L 4108,685 1488,3899 1465,3881 4086,667 Z "/>
         <path fill="rgb(33,131,232)" stroke="none" d="M 4101,679 L 4123,697 1502,3911 1480,3893 4101,679 Z "/>
         <path fill="rgb(34,130,231)" stroke="none" d="M 4115,691 L 4138,709 1517,3923 1495,3905 4115,691 Z "/>
         <path fill="rgb(34,129,231)" stroke="none" d="M 4130,703 L 4152,721 1532,3935 1510,3917 4130,703 Z "/>
         <path fill="rgb(34,128,231)" stroke="none" d="M 4145,715 L 4167,733 1547,3947 1525,3929 4145,715 Z "/>
         <path fill="rgb(34,127,230)" stroke="none" d="M 4160,727 L 4182,746 1562,3959 1539,3941 4160,727 Z "/>
         <path fill="rgb(35,127,230)" stroke="none" d="M 4174,739 L 4197,758 1576,3971 1554,3953 4174,739 Z "/>
         <path fill="rgb(35,126,230)" stroke="none" d="M 4189,751 L 4211,770 1591,3983 1569,3965 4189,751 Z "/>
         <path fill="rgb(35,125,229)" stroke="none" d="M 4204,764 L 4226,782 1606,3996 1584,3977 4204,764 Z "/>
         <path fill="rgb(35,124,229)" stroke="none" d="M 4219,776 L 4241,794 1621,4008 1598,3989 4219,776 Z "/>
         <path fill="rgb(35,123,229)" stroke="none" d="M 4233,788 L 4256,806 1635,4020 1613,4002 4233,788 Z "/>
         <path fill="rgb(36,122,228)" stroke="none" d="M 4248,800 L 4270,818 1650,4032 1628,4014 4248,800 Z "/>
         <path fill="rgb(36,121,228)" stroke="none" d="M 4263,812 L 4285,830 1665,4044 1643,4026 4263,812 Z "/>
         <path fill="rgb(36,120,228)" stroke="none" d="M 4278,824 L 4300,842 1680,4056 1658,4038 4278,824 Z "/>
         <path fill="rgb(36,119,227)" stroke="none" d="M 4293,836 L 4315,854 1694,4068 1672,4050 4293,836 Z "/>
         <path fill="rgb(36,118,227)" stroke="none" d="M 4307,848 L 4330,866 1709,4080 1687,4062 4307,848 Z "/>
         <path fill="rgb(37,117,227)" stroke="none" d="M 4322,860 L 4344,878 1724,4092 1702,4074 4322,860 Z "/>
         <path fill="rgb(37,116,227)" stroke="none" d="M 4337,872 L 4359,890 1739,4104 1717,4086 4337,872 Z "/>
         <path fill="rgb(37,115,226)" stroke="none" d="M 4352,884 L 4374,902 1754,4116 1731,4098 4352,884 Z "/>
         <path fill="rgb(37,114,226)" stroke="none" d="M 4366,896 L 4389,914 1768,4128 1746,4110 4366,896 Z "/>
         <path fill="rgb(37,113,226)" stroke="none" d="M 4381,908 L 4403,926 1783,4140 1761,4122 4381,908 Z "/>
         <path fill="rgb(38,113,225)" stroke="none" d="M 4396,920 L 4418,938 1798,4152 1776,4134 4396,920 Z "/>
         <path fill="rgb(38,112,225)" stroke="none" d="M 4411,932 L 4433,950 1813,4164 1790,4146 4411,932 Z "/>
         <path fill="rgb(38,111,225)" stroke="none" d="M 4426,944 L 4448,962 1827,4176 1805,4158 4426,944 Z "/>
         <path fill="rgb(38,110,224)" stroke="none" d="M 4440,956 L 4462,974 1842,4188 1820,4170 4440,956 Z "/>
         <path fill="rgb(39,109,224)" stroke="none" d="M 4455,968 L 4477,986 1857,4200 1835,4182 4455,968 Z "/>
         <path fill="rgb(39,108,224)" stroke="none" d="M 4470,980 L 4492,998 1872,4212 1850,4194 4470,980 Z "/>
         <path fill="rgb(39,107,223)" stroke="none" d="M 4485,992 L 4507,1010 1887,4224 1864,4206 4485,992 Z "/>
         <path fill="rgb(39,106,223)" stroke="none" d="M 4499,1004 L 4522,1023 1901,4236 1879,4218 4499,1004 Z "/>
         <path fill="rgb(39,105,223)" stroke="none" d="M 4514,1016 L 4536,1035 1916,4248 1894,4230 4514,1016 Z "/>
         <path fill="rgb(40,104,223)" stroke="none" d="M 4529,1028 L 4551,1047 1931,4260 1909,4242 4529,1028 Z "/>
         <path fill="rgb(40,103,222)" stroke="none" d="M 4544,1041 L 4566,1059 1946,4273 1923,4254 4544,1041 Z "/>
         <path fill="rgb(40,102,222)" stroke="none" d="M 4558,1053 L 4581,1071 1960,4285 1938,4266 4558,1053 Z "/>
         <path fill="rgb(40,101,222)" stroke="none" d="M 4573,1065 L 4595,1083 1975,4297 1953,4278 4573,1065 Z "/>
         <path fill="rgb(40,100,221)" stroke="none" d="M 4588,1077 L 4610,1095 1990,4309 1968,4291 4588,1077 Z "/>
         <path fill="rgb(41,100,221)" stroke="none" d="M 4603,1089 L 4625,1107 2005,4321 1982,4303 4603,1089 Z "/>
         <path fill="rgb(41,99,221)" stroke="none" d="M 4618,1101 L 4640,1119 2019,4333 1997,4315 4618,1101 Z "/>
         <path fill="rgb(41,98,220)" stroke="none" d="M 4632,1113 L 4655,1131 2034,4345 2012,4327 4632,1113 Z "/>
         <path fill="rgb(41,97,220)" stroke="none" d="M 4647,1125 L 4669,1143 2049,4357 2027,4339 4647,1125 Z "/>
         <path fill="rgb(41,96,220)" stroke="none" d="M 4662,1137 L 4684,1155 2064,4369 2042,4351 4662,1137 Z "/>
         <path fill="rgb(42,95,219)" stroke="none" d="M 4677,1149 L 4699,1167 2079,4381 2056,4363 4677,1149 Z "/>
         <path fill="rgb(42,94,219)" stroke="none" d="M 4691,1161 L 4714,1179 2093,4393 2071,4375 4691,1161 Z "/>
         <path fill="rgb(42,93,219)" stroke="none" d="M 4706,1173 L 4728,1191 2108,4405 2086,4387 4706,1173 Z "/>
         <path fill="rgb(42,92,218)" stroke="none" d="M 4721,1185 L 4743,1203 2123,4417 2101,4399 4721,1185 Z "/>
         <path fill="rgb(43,91,218)" stroke="none" d="M 4736,1197 L 4758,1215 2138,4429 2115,4411 4736,1197 Z "/>
         <path fill="rgb(43,90,218)" stroke="none" d="M 4750,1209 L 4773,1227 2152,4441 2130,4423 4750,1209 Z "/>
         <path fill="rgb(43,89,218)" stroke="none" d="M 4765,1221 L 4787,1239 2167,4453 2145,4435 4765,1221 Z "/>
         <path fill="rgb(43,88,217)" stroke="none" d="M 4780,1233 L 4802,1251 2182,4465 2160,4447 4780,1233 Z "/>
         <path fill="rgb(43,87,217)" stroke="none" d="M 4795,1245 L 4817,1263 2197,4477 2175,4459 4795,1245 Z "/>
         <path fill="rgb(44,87,217)" stroke="none" d="M 4810,1257 L 4832,1275 2211,4489 2189,4471 4810,1257 Z "/>
         <path fill="rgb(44,86,216)" stroke="none" d="M 4824,1269 L 4847,1287 2226,4501 2204,4483 4824,1269 Z "/>
         <path fill="rgb(44,85,216)" stroke="none" d="M 4839,1281 L 4861,1299 2241,4513 2219,4495 4839,1281 Z "/>
         <path fill="rgb(44,84,216)" stroke="none" d="M 4854,1293 L 4876,1312 2256,4525 2234,4507 4854,1293 Z "/>
         <path fill="rgb(44,83,215)" stroke="none" d="M 4869,1305 L 4891,1324 2271,4537 2248,4519 4869,1305 Z "/>
         <path fill="rgb(45,82,215)" stroke="none" d="M 4883,1318 L 4906,1336 2285,4550 2263,4531 4883,1318 Z "/>
         <path fill="rgb(45,81,215)" stroke="none" d="M 4898,1330 L 4920,1348 2300,4562 2278,4543 4898,1330 Z "/>
         <path fill="rgb(45,80,214)" stroke="none" d="M 4913,1342 L 4935,1360 2315,4574 2293,4555 4913,1342 Z "/>
         <path fill="rgb(45,79,214)" stroke="none" d="M 4928,1354 L 4950,1372 2330,4586 2307,4568 4928,1354 Z "/>
         <path fill="rgb(45,78,214)" stroke="none" d="M 4943,1366 L 4965,1384 2344,4598 2322,4580 4943,1366 Z "/>
         <path fill="rgb(46,77,213)" stroke="none" d="M 4957,1378 L 4979,1396 2359,4610 2337,4592 4957,1378 Z "/>
         <path fill="rgb(46,76,213)" stroke="none" d="M 4972,1390 L 4994,1408 2374,4622 2352,4604 4972,1390 Z "/>
         <path fill="rgb(46,75,213)" stroke="none" d="M 4987,1402 L 5009,1420 2389,4634 2367,4616 4987,1402 Z "/>
         <path fill="rgb(46,74,212)" stroke="none" d="M 5002,1414 L 5024,1432 2404,4646 2381,4628 5002,1414 Z "/>
         <path fill="rgb(47,74,212)" stroke="none" d="M 5016,1426 L 5039,1444 2418,4658 2396,4640 5016,1426 Z "/>
         <path fill="rgb(47,73,212)" stroke="none" d="M 5031,1438 L 5053,1456 2433,4670 2411,4652 5031,1438 Z "/>
         <path fill="rgb(47,72,212)" stroke="none" d="M 5046,1450 L 5068,1468 2448,4682 2426,4664 5046,1450 Z "/>
         <path fill="rgb(47,71,211)" stroke="none" d="M 5061,1462 L 5083,1480 2463,4694 2440,4676 5061,1462 Z "/>
         <path fill="rgb(47,70,211)" stroke="none" d="M 5075,1474 L 5098,1492 2477,4706 2455,4688 5075,1474 Z "/>
         <path fill="rgb(48,69,211)" stroke="none" d="M 5090,1486 L 5112,1504 2492,4718 2470,4700 5090,1486 Z "/>
         <path fill="rgb(48,68,210)" stroke="none" d="M 5105,1498 L 5127,1516 2507,4730 2485,4712 5105,1498 Z "/>
         <path fill="rgb(48,67,210)" stroke="none" d="M 5120,1510 L 5150,1535 2530,4749 2499,4724 5120,1510 Z "/>
         <path fill="rgb(49,67,210)" stroke="none" d="M 5143,1529 L 5174,1554 2553,4768 2523,4743 5143,1529 Z "/>
         <path fill="rgb(50,67,211)" stroke="none" d="M 5166,1548 L 5197,1573 2576,4787 2546,4762 5166,1548 Z "/>
         <path fill="rgb(51,67,211)" stroke="none" d="M 5189,1567 L 5220,1592 2600,4806 2569,4781 5189,1567 Z "/>
         <path fill="rgb(52,67,212)" stroke="none" d="M 5212,1586 L 5243,1611 2623,4825 2592,4800 5212,1586 Z "/>
         <path fill="rgb(52,67,212)" stroke="none" d="M 5236,1605 L 5266,1630 2646,4843 2615,4818 5236,1605 Z "/>
         <path fill="rgb(53,67,213)" stroke="none" d="M 5259,1623 L 5289,1648 2669,4862 2638,4837 5259,1623 Z "/>
         <path fill="rgb(54,67,213)" stroke="none" d="M 5282,1642 L 5312,1667 2692,4881 2662,4856 5282,1642 Z "/>
         <path fill="rgb(55,67,213)" stroke="none" d="M 5305,1661 L 5336,1686 2715,4900 2685,4875 5305,1661 Z "/>
         <path fill="rgb(56,67,214)" stroke="none" d="M 5328,1680 L 5359,1705 2738,4919 2708,4894 5328,1680 Z "/>
         <path fill="rgb(57,68,214)" stroke="none" d="M 5351,1699 L 5382,1724 2762,4938 2731,4913 5351,1699 Z "/>
         <path fill="rgb(58,68,215)" stroke="none" d="M 5374,1718 L 5405,1743 2785,4957 2754,4932 5374,1718 Z "/>
         <path fill="rgb(59,68,215)" stroke="none" d="M 5398,1737 L 5428,1762 2808,4976 2777,4951 5398,1737 Z "/>
         <path fill="rgb(60,68,216)" stroke="none" d="M 5421,1756 L 5451,1781 2831,4994 2800,4969 5421,1756 Z "/>
         <path fill="rgb(61,68,216)" stroke="none" d="M 5444,1774 L 5474,1799 2854,5013 2824,4988 5444,1774 Z "/>
         <path fill="rgb(61,68,216)" stroke="none" d="M 5467,1793 L 5498,1818 2877,5032 2847,5007 5467,1793 Z "/>
         <path fill="rgb(62,68,217)" stroke="none" d="M 5490,1812 L 5521,1837 2900,5051 2870,5026 5490,1812 Z "/>
         <path fill="rgb(63,68,217)" stroke="none" d="M 5513,1831 L 5544,1856 2924,5070 2893,5045 5513,1831 Z "/>
         <path fill="rgb(64,68,218)" stroke="none" d="M 5537,1850 L 5567,1875 2947,5089 2916,5064 5537,1850 Z "/>
         <path fill="rgb(65,68,218)" stroke="none" d="M 5560,1869 L 5590,1894 2970,5108 2939,5083 5560,1869 Z "/>
         <path fill="rgb(66,68,218)" stroke="none" d="M 5583,1888 L 5613,1913 2993,5127 2963,5102 5583,1888 Z "/>
         <path fill="rgb(67,68,219)" stroke="none" d="M 5606,1907 L 5637,1932 3016,5145 2986,5120 5606,1907 Z "/>
         <path fill="rgb(68,68,219)" stroke="none" d="M 5629,1925 L 5660,1950 3039,5164 3009,5139 5629,1925 Z "/>
         <path fill="rgb(69,68,220)" stroke="none" d="M 5652,1944 L 5683,1969 3063,5183 3032,5158 5652,1944 Z "/>
         <path fill="rgb(70,68,220)" stroke="none" d="M 5675,1963 L 5706,1988 3086,5202 3055,5177 5675,1963 Z "/>
         <path fill="rgb(70,68,221)" stroke="none" d="M 5699,1982 L 5729,2007 3109,5221 3078,5196 5699,1982 Z "/>
         <path fill="rgb(71,68,221)" stroke="none" d="M 5722,2001 L 5752,2026 3132,5240 3101,5215 5722,2001 Z "/>
         <path fill="rgb(72,68,221)" stroke="none" d="M 5745,2020 L 5775,2045 3155,5259 3125,5234 5745,2020 Z "/>
         <path fill="rgb(73,68,222)" stroke="none" d="M 5768,2039 L 5799,2064 3178,5278 3148,5253 5768,2039 Z "/>
         <path fill="rgb(74,68,222)" stroke="none" d="M 5791,2058 L 5822,2083 3201,5296 3171,5271 5791,2058 Z "/>
         <path fill="rgb(75,69,223)" stroke="none" d="M 5814,2076 L 5845,2101 3225,5315 3194,5290 5814,2076 Z "/>
         <path fill="rgb(76,69,223)" stroke="none" d="M 5837,2095 L 5868,2120 3248,5334 3217,5309 5837,2095 Z "/>
         <path fill="rgb(77,69,224)" stroke="none" d="M 5861,2114 L 5891,2139 3271,5353 3240,5328 5861,2114 Z "/>
         <path fill="rgb(78,69,224)" stroke="none" d="M 5884,2133 L 5914,2158 3294,5372 3263,5347 5884,2133 Z "/>
         <path fill="rgb(79,69,224)" stroke="none" d="M 5907,2152 L 5938,2177 3317,5391 3287,5366 5907,2152 Z "/>
         <path fill="rgb(79,69,225)" stroke="none" d="M 5930,2171 L 5961,2196 3340,5410 3310,5385 5930,2171 Z "/>
         <path fill="rgb(80,69,225)" stroke="none" d="M 5953,2190 L 5984,2215 3364,5429 3333,5404 5953,2190 Z "/>
         <path fill="rgb(81,69,226)" stroke="none" d="M 5976,2209 L 6007,2234 3387,5447 3356,5423 5976,2209 Z "/>
         <path fill="rgb(82,69,226)" stroke="none" d="M 6000,2227 L 6030,2252 3410,5466 3379,5441 6000,2227 Z "/>
         <path fill="rgb(83,69,227)" stroke="none" d="M 6023,2246 L 6053,2271 3433,5485 3402,5460 6023,2246 Z "/>
         <path fill="rgb(84,69,227)" stroke="none" d="M 6046,2265 L 6076,2290 3456,5504 3426,5479 6046,2265 Z "/>
         <path fill="rgb(85,69,227)" stroke="none" d="M 6069,2284 L 6100,2309 3479,5523 3449,5498 6069,2284 Z "/>
         <path fill="rgb(86,69,228)" stroke="none" d="M 6092,2303 L 6123,2328 3502,5542 3472,5517 6092,2303 Z "/>
         <path fill="rgb(87,69,228)" stroke="none" d="M 6115,2322 L 6146,2347 3526,5561 3495,5536 6115,2322 Z "/>
         <path fill="rgb(88,69,229)" stroke="none" d="M 6138,2341 L 6169,2366 3549,5580 3518,5555 6138,2341 Z "/>
         <path fill="rgb(88,69,229)" stroke="none" d="M 6162,2360 L 6192,2385 3572,5598 3541,5574 6162,2360 Z "/>
         <path fill="rgb(89,69,229)" stroke="none" d="M 6185,2379 L 6215,2403 3595,5617 3564,5592 6185,2379 Z "/>
         <path fill="rgb(90,69,230)" stroke="none" d="M 6208,2397 L 6239,2422 3618,5636 3588,5611 6208,2397 Z "/>
         <path fill="rgb(91,69,230)" stroke="none" d="M 6231,2416 L 6262,2441 3641,5655 3611,5630 6231,2416 Z "/>
         <path fill="rgb(92,69,231)" stroke="none" d="M 6254,2435 L 6285,2460 3665,5674 3634,5649 6254,2435 Z "/>
         <path fill="rgb(93,70,231)" stroke="none" d="M 6277,2454 L 6308,2479 3688,5693 3657,5668 6277,2454 Z "/>
         <path fill="rgb(94,70,232)" stroke="none" d="M 6301,2473 L 6331,2498 3711,5712 3680,5687 6301,2473 Z "/>
         <path fill="rgb(95,70,232)" stroke="none" d="M 6324,2492 L 6354,2517 3734,5731 3703,5706 6324,2492 Z "/>
         <path fill="rgb(96,70,232)" stroke="none" d="M 6347,2511 L 6377,2536 3757,5749 3727,5725 6347,2511 Z "/>
         <path fill="rgb(97,70,233)" stroke="none" d="M 6370,2530 L 6401,2554 3780,5768 3750,5743 6370,2530 Z "/>
         <path fill="rgb(97,70,233)" stroke="none" d="M 6393,2548 L 6424,2573 3803,5787 3773,5762 6393,2548 Z "/>
         <path fill="rgb(98,70,234)" stroke="none" d="M 6416,2567 L 6447,2592 3827,5806 3796,5781 6416,2567 Z "/>
         <path fill="rgb(99,70,234)" stroke="none" d="M 6439,2586 L 6470,2611 3850,5825 3819,5800 6439,2586 Z "/>
         <path fill="rgb(100,70,235)" stroke="none" d="M 6463,2605 L 6493,2630 3873,5844 3842,5819 6463,2605 Z "/>
        </g>
        <defs>
         <clipPath id="clip_path_3" clipPathUnits="userSpaceOnUse">
          <path d="M 1834,4531 C 1834,4531 2318,4507 2534,4472 2750,4438 3151,4331 3151,4331 3151,4331 3585,4395 3812,4305 3945,4253 4104,4192 4239,4104 4373,4016 4460,3891 4492,3891 4557,3893 5090,4381 5089,4430 5089,4481 4592,5210 3414,5236 2787,5251 2096,4873 1834,4531 L 1834,4531 Z "/>
         </clipPath>
        </defs>
        <g clip-path="url(#clip_path_3)">
         <path fill="rgb(21,186,250)" stroke="none" d="M 1794,1743 L 1824,1766 461,3492 431,3468 1794,1743 Z "/>
         <path fill="rgb(21,185,250)" stroke="none" d="M 1808,1754 L 1838,1778 476,3503 446,3479 1808,1754 Z "/>
         <path fill="rgb(21,184,249)" stroke="none" d="M 1823,1765 L 1853,1789 490,3514 460,3491 1823,1765 Z "/>
         <path fill="rgb(22,183,249)" stroke="none" d="M 1837,1777 L 1867,1800 504,3526 474,3502 1837,1777 Z "/>
         <path fill="rgb(22,182,249)" stroke="none" d="M 1851,1788 L 1881,1812 518,3537 489,3513 1851,1788 Z "/>
         <path fill="rgb(22,181,248)" stroke="none" d="M 1866,1799 L 1895,1823 533,3548 503,3525 1866,1799 Z "/>
         <path fill="rgb(22,180,248)" stroke="none" d="M 1880,1811 L 1910,1834 547,3559 517,3536 1880,1811 Z "/>
         <path fill="rgb(22,179,248)" stroke="none" d="M 1894,1822 L 1924,1845 561,3571 531,3547 1894,1822 Z "/>
         <path fill="rgb(23,179,248)" stroke="none" d="M 1908,1833 L 1938,1857 576,3582 546,3558 1908,1833 Z "/>
         <path fill="rgb(23,178,247)" stroke="none" d="M 1923,1844 L 1953,1868 590,3593 560,3570 1923,1844 Z "/>
         <path fill="rgb(23,177,247)" stroke="none" d="M 1937,1856 L 1967,1879 604,3605 574,3581 1937,1856 Z "/>
         <path fill="rgb(23,176,247)" stroke="none" d="M 1951,1867 L 1981,1891 619,3616 589,3592 1951,1867 Z "/>
         <path fill="rgb(24,175,246)" stroke="none" d="M 1966,1878 L 1995,1902 633,3627 603,3604 1966,1878 Z "/>
         <path fill="rgb(24,174,246)" stroke="none" d="M 1980,1890 L 2010,1913 647,3638 617,3615 1980,1890 Z "/>
         <path fill="rgb(24,173,246)" stroke="none" d="M 1994,1901 L 2024,1924 661,3650 631,3626 1994,1901 Z "/>
         <path fill="rgb(24,172,245)" stroke="none" d="M 2008,1912 L 2038,1936 676,3661 646,3637 2008,1912 Z "/>
         <path fill="rgb(24,171,245)" stroke="none" d="M 2023,1923 L 2053,1947 690,3672 660,3649 2023,1923 Z "/>
         <path fill="rgb(25,170,245)" stroke="none" d="M 2037,1935 L 2067,1958 704,3684 674,3660 2037,1935 Z "/>
         <path fill="rgb(25,169,244)" stroke="none" d="M 2051,1946 L 2081,1970 719,3695 689,3671 2051,1946 Z "/>
         <path fill="rgb(25,168,244)" stroke="none" d="M 2066,1957 L 2096,1981 733,3706 703,3683 2066,1957 Z "/>
         <path fill="rgb(25,167,244)" stroke="none" d="M 2080,1969 L 2110,1992 747,3717 717,3694 2080,1969 Z "/>
         <path fill="rgb(25,166,243)" stroke="none" d="M 2094,1980 L 2124,2003 761,3729 731,3705 2094,1980 Z "/>
         <path fill="rgb(26,166,243)" stroke="none" d="M 2108,1991 L 2138,2015 776,3740 746,3716 2108,1991 Z "/>
         <path fill="rgb(26,165,243)" stroke="none" d="M 2123,2002 L 2153,2026 790,3751 760,3728 2123,2002 Z "/>
         <path fill="rgb(26,164,243)" stroke="none" d="M 2137,2014 L 2167,2037 804,3763 774,3739 2137,2014 Z "/>
         <path fill="rgb(26,163,242)" stroke="none" d="M 2151,2025 L 2181,2049 819,3774 789,3750 2151,2025 Z "/>
         <path fill="rgb(26,162,242)" stroke="none" d="M 2166,2036 L 2196,2060 833,3785 803,3762 2166,2036 Z "/>
         <path fill="rgb(27,161,242)" stroke="none" d="M 2180,2048 L 2210,2071 847,3796 817,3773 2180,2048 Z "/>
         <path fill="rgb(27,160,241)" stroke="none" d="M 2194,2059 L 2224,2082 861,3808 832,3784 2194,2059 Z "/>
         <path fill="rgb(27,159,241)" stroke="none" d="M 2208,2070 L 2238,2094 876,3819 846,3795 2208,2070 Z "/>
         <path fill="rgb(27,158,241)" stroke="none" d="M 2223,2081 L 2253,2105 890,3830 860,3807 2223,2081 Z "/>
         <path fill="rgb(28,157,240)" stroke="none" d="M 2237,2093 L 2267,2116 904,3842 874,3818 2237,2093 Z "/>
         <path fill="rgb(28,156,240)" stroke="none" d="M 2251,2104 L 2281,2128 919,3853 889,3829 2251,2104 Z "/>
         <path fill="rgb(28,155,240)" stroke="none" d="M 2266,2115 L 2296,2139 933,3864 903,3841 2266,2115 Z "/>
         <path fill="rgb(28,154,239)" stroke="none" d="M 2280,2127 L 2310,2150 947,3875 917,3852 2280,2127 Z "/>
         <path fill="rgb(28,153,239)" stroke="none" d="M 2294,2138 L 2324,2161 961,3887 932,3863 2294,2138 Z "/>
         <path fill="rgb(29,153,239)" stroke="none" d="M 2309,2149 L 2338,2173 976,3898 946,3874 2309,2149 Z "/>
         <path fill="rgb(29,152,238)" stroke="none" d="M 2323,2160 L 2353,2184 990,3909 960,3886 2323,2160 Z "/>
         <path fill="rgb(29,151,238)" stroke="none" d="M 2337,2172 L 2367,2195 1004,3921 974,3897 2337,2172 Z "/>
         <path fill="rgb(29,150,238)" stroke="none" d="M 2351,2183 L 2381,2207 1019,3932 989,3908 2351,2183 Z "/>
         <path fill="rgb(29,149,237)" stroke="none" d="M 2366,2194 L 2396,2218 1033,3943 1003,3920 2366,2194 Z "/>
         <path fill="rgb(30,148,237)" stroke="none" d="M 2380,2206 L 2410,2229 1047,3954 1017,3931 2380,2206 Z "/>
         <path fill="rgb(30,147,237)" stroke="none" d="M 2394,2217 L 2424,2240 1062,3966 1032,3942 2394,2217 Z "/>
         <path fill="rgb(30,146,237)" stroke="none" d="M 2409,2228 L 2438,2252 1076,3977 1046,3953 2409,2228 Z "/>
         <path fill="rgb(30,145,236)" stroke="none" d="M 2423,2239 L 2453,2263 1090,3988 1060,3965 2423,2239 Z "/>
         <path fill="rgb(30,144,236)" stroke="none" d="M 2437,2251 L 2467,2274 1104,4000 1074,3976 2437,2251 Z "/>
         <path fill="rgb(31,143,236)" stroke="none" d="M 2451,2262 L 2481,2286 1119,4011 1089,3987 2451,2262 Z "/>
         <path fill="rgb(31,142,235)" stroke="none" d="M 2466,2273 L 2496,2297 1133,4022 1103,3999 2466,2273 Z "/>
         <path fill="rgb(31,141,235)" stroke="none" d="M 2480,2285 L 2510,2308 1147,4033 1117,4010 2480,2285 Z "/>
         <path fill="rgb(31,140,235)" stroke="none" d="M 2494,2296 L 2524,2319 1162,4045 1132,4021 2494,2296 Z "/>
         <path fill="rgb(32,140,234)" stroke="none" d="M 2509,2307 L 2538,2331 1176,4056 1146,4032 2509,2307 Z "/>
         <path fill="rgb(32,139,234)" stroke="none" d="M 2523,2318 L 2553,2342 1190,4067 1160,4044 2523,2318 Z "/>
         <path fill="rgb(32,138,234)" stroke="none" d="M 2537,2330 L 2567,2353 1204,4079 1174,4055 2537,2330 Z "/>
         <path fill="rgb(32,137,233)" stroke="none" d="M 2551,2341 L 2581,2365 1219,4090 1189,4066 2551,2341 Z "/>
         <path fill="rgb(32,136,233)" stroke="none" d="M 2566,2352 L 2596,2376 1233,4101 1203,4078 2566,2352 Z "/>
         <path fill="rgb(33,135,233)" stroke="none" d="M 2580,2364 L 2610,2387 1247,4112 1217,4089 2580,2364 Z "/>
         <path fill="rgb(33,134,233)" stroke="none" d="M 2594,2375 L 2624,2398 1262,4124 1232,4100 2594,2375 Z "/>
         <path fill="rgb(33,133,232)" stroke="none" d="M 2609,2386 L 2639,2410 1276,4135 1246,4111 2609,2386 Z "/>
         <path fill="rgb(33,132,232)" stroke="none" d="M 2623,2397 L 2653,2421 1290,4146 1260,4123 2623,2397 Z "/>
         <path fill="rgb(33,131,232)" stroke="none" d="M 2637,2409 L 2667,2432 1304,4158 1275,4134 2637,2409 Z "/>
         <path fill="rgb(34,130,231)" stroke="none" d="M 2651,2420 L 2681,2444 1319,4169 1289,4145 2651,2420 Z "/>
         <path fill="rgb(34,129,231)" stroke="none" d="M 2666,2431 L 2696,2455 1333,4180 1303,4157 2666,2431 Z "/>
         <path fill="rgb(34,128,231)" stroke="none" d="M 2680,2443 L 2710,2466 1347,4191 1317,4168 2680,2443 Z "/>
         <path fill="rgb(34,127,230)" stroke="none" d="M 2694,2454 L 2724,2477 1362,4203 1332,4179 2694,2454 Z "/>
         <path fill="rgb(35,127,230)" stroke="none" d="M 2709,2465 L 2739,2489 1376,4214 1346,4190 2709,2465 Z "/>
         <path fill="rgb(35,126,230)" stroke="none" d="M 2723,2476 L 2753,2500 1390,4225 1360,4202 2723,2476 Z "/>
         <path fill="rgb(35,125,229)" stroke="none" d="M 2737,2488 L 2767,2511 1404,4237 1375,4213 2737,2488 Z "/>
         <path fill="rgb(35,124,229)" stroke="none" d="M 2751,2499 L 2781,2523 1419,4248 1389,4224 2751,2499 Z "/>
         <path fill="rgb(35,123,229)" stroke="none" d="M 2766,2510 L 2796,2534 1433,4259 1403,4236 2766,2510 Z "/>
         <path fill="rgb(36,122,228)" stroke="none" d="M 2780,2522 L 2810,2545 1447,4270 1417,4247 2780,2522 Z "/>
         <path fill="rgb(36,121,228)" stroke="none" d="M 2794,2533 L 2824,2556 1462,4282 1432,4258 2794,2533 Z "/>
         <path fill="rgb(36,120,228)" stroke="none" d="M 2809,2544 L 2839,2568 1476,4293 1446,4269 2809,2544 Z "/>
         <path fill="rgb(36,119,227)" stroke="none" d="M 2823,2555 L 2853,2579 1490,4304 1460,4281 2823,2555 Z "/>
         <path fill="rgb(36,118,227)" stroke="none" d="M 2837,2567 L 2867,2590 1504,4316 1475,4292 2837,2567 Z "/>
         <path fill="rgb(37,117,227)" stroke="none" d="M 2852,2578 L 2881,2602 1519,4327 1489,4303 2852,2578 Z "/>
         <path fill="rgb(37,116,227)" stroke="none" d="M 2866,2589 L 2896,2613 1533,4338 1503,4315 2866,2589 Z "/>
         <path fill="rgb(37,115,226)" stroke="none" d="M 2880,2601 L 2910,2624 1547,4349 1517,4326 2880,2601 Z "/>
         <path fill="rgb(37,114,226)" stroke="none" d="M 2894,2612 L 2924,2635 1562,4361 1532,4337 2894,2612 Z "/>
         <path fill="rgb(37,113,226)" stroke="none" d="M 2909,2623 L 2939,2647 1576,4372 1546,4348 2909,2623 Z "/>
         <path fill="rgb(38,113,225)" stroke="none" d="M 2923,2634 L 2953,2658 1590,4383 1560,4360 2923,2634 Z "/>
         <path fill="rgb(38,112,225)" stroke="none" d="M 2937,2646 L 2967,2669 1605,4395 1575,4371 2937,2646 Z "/>
         <path fill="rgb(38,111,225)" stroke="none" d="M 2952,2657 L 2981,2681 1619,4406 1589,4382 2952,2657 Z "/>
         <path fill="rgb(38,110,224)" stroke="none" d="M 2966,2668 L 2996,2692 1633,4417 1603,4394 2966,2668 Z "/>
         <path fill="rgb(39,109,224)" stroke="none" d="M 2980,2680 L 3010,2703 1647,4428 1617,4405 2980,2680 Z "/>
         <path fill="rgb(39,108,224)" stroke="none" d="M 2994,2691 L 3024,2714 1662,4440 1632,4416 2994,2691 Z "/>
         <path fill="rgb(39,107,223)" stroke="none" d="M 3009,2702 L 3039,2726 1676,4451 1646,4427 3009,2702 Z "/>
         <path fill="rgb(39,106,223)" stroke="none" d="M 3023,2713 L 3053,2737 1690,4462 1660,4439 3023,2713 Z "/>
         <path fill="rgb(39,105,223)" stroke="none" d="M 3037,2725 L 3067,2748 1705,4474 1675,4450 3037,2725 Z "/>
         <path fill="rgb(40,104,223)" stroke="none" d="M 3052,2736 L 3082,2760 1719,4485 1689,4461 3052,2736 Z "/>
         <path fill="rgb(40,103,222)" stroke="none" d="M 3066,2747 L 3096,2771 1733,4496 1703,4473 3066,2747 Z "/>
         <path fill="rgb(40,102,222)" stroke="none" d="M 3080,2759 L 3110,2782 1747,4508 1717,4484 3080,2759 Z "/>
         <path fill="rgb(40,101,222)" stroke="none" d="M 3094,2770 L 3124,2793 1762,4519 1732,4495 3094,2770 Z "/>
         <path fill="rgb(40,100,221)" stroke="none" d="M 3109,2781 L 3139,2805 1776,4530 1746,4506 3109,2781 Z "/>
         <path fill="rgb(41,100,221)" stroke="none" d="M 3123,2792 L 3153,2816 1790,4541 1760,4518 3123,2792 Z "/>
         <path fill="rgb(41,99,221)" stroke="none" d="M 3137,2804 L 3167,2827 1805,4553 1775,4529 3137,2804 Z "/>
         <path fill="rgb(41,98,220)" stroke="none" d="M 3152,2815 L 3182,2839 1819,4564 1789,4540 3152,2815 Z "/>
         <path fill="rgb(41,97,220)" stroke="none" d="M 3166,2826 L 3196,2850 1833,4575 1803,4552 3166,2826 Z "/>
         <path fill="rgb(41,96,220)" stroke="none" d="M 3180,2838 L 3210,2861 1847,4587 1818,4563 3180,2838 Z "/>
         <path fill="rgb(42,95,219)" stroke="none" d="M 3194,2849 L 3224,2872 1862,4598 1832,4574 3194,2849 Z "/>
         <path fill="rgb(42,94,219)" stroke="none" d="M 3209,2860 L 3239,2884 1876,4609 1846,4585 3209,2860 Z "/>
         <path fill="rgb(42,93,219)" stroke="none" d="M 3223,2871 L 3253,2895 1890,4620 1860,4597 3223,2871 Z "/>
         <path fill="rgb(42,92,218)" stroke="none" d="M 3237,2883 L 3267,2906 1905,4632 1875,4608 3237,2883 Z "/>
         <path fill="rgb(43,91,218)" stroke="none" d="M 3252,2894 L 3282,2918 1919,4643 1889,4619 3252,2894 Z "/>
         <path fill="rgb(43,90,218)" stroke="none" d="M 3266,2905 L 3296,2929 1933,4654 1903,4631 3266,2905 Z "/>
         <path fill="rgb(43,89,218)" stroke="none" d="M 3280,2917 L 3310,2940 1947,4666 1918,4642 3280,2917 Z "/>
         <path fill="rgb(43,88,217)" stroke="none" d="M 3295,2928 L 3324,2951 1962,4677 1932,4653 3295,2928 Z "/>
         <path fill="rgb(43,87,217)" stroke="none" d="M 3309,2939 L 3339,2963 1976,4688 1946,4664 3309,2939 Z "/>
         <path fill="rgb(44,87,217)" stroke="none" d="M 3323,2950 L 3353,2974 1990,4699 1960,4676 3323,2950 Z "/>
         <path fill="rgb(44,86,216)" stroke="none" d="M 3337,2962 L 3367,2985 2005,4711 1975,4687 3337,2962 Z "/>
         <path fill="rgb(44,85,216)" stroke="none" d="M 3352,2973 L 3382,2997 2019,4722 1989,4698 3352,2973 Z "/>
         <path fill="rgb(44,84,216)" stroke="none" d="M 3366,2984 L 3396,3008 2033,4733 2003,4710 3366,2984 Z "/>
         <path fill="rgb(44,83,215)" stroke="none" d="M 3380,2996 L 3410,3019 2048,4745 2018,4721 3380,2996 Z "/>
         <path fill="rgb(45,82,215)" stroke="none" d="M 3395,3007 L 3424,3030 2062,4756 2032,4732 3395,3007 Z "/>
         <path fill="rgb(45,81,215)" stroke="none" d="M 3409,3018 L 3439,3042 2076,4767 2046,4743 3409,3018 Z "/>
         <path fill="rgb(45,80,214)" stroke="none" d="M 3423,3029 L 3453,3053 2090,4778 2060,4755 3423,3029 Z "/>
         <path fill="rgb(45,79,214)" stroke="none" d="M 3437,3041 L 3467,3064 2105,4790 2075,4766 3437,3041 Z "/>
         <path fill="rgb(45,78,214)" stroke="none" d="M 3452,3052 L 3482,3076 2119,4801 2089,4777 3452,3052 Z "/>
         <path fill="rgb(46,77,213)" stroke="none" d="M 3466,3063 L 3496,3087 2133,4812 2103,4789 3466,3063 Z "/>
         <path fill="rgb(46,76,213)" stroke="none" d="M 3480,3075 L 3510,3098 2148,4824 2118,4800 3480,3075 Z "/>
         <path fill="rgb(46,75,213)" stroke="none" d="M 3495,3086 L 3524,3109 2162,4835 2132,4811 3495,3086 Z "/>
         <path fill="rgb(46,74,212)" stroke="none" d="M 3509,3097 L 3539,3121 2176,4846 2146,4822 3509,3097 Z "/>
         <path fill="rgb(47,74,212)" stroke="none" d="M 3523,3108 L 3553,3132 2190,4857 2160,4834 3523,3108 Z "/>
         <path fill="rgb(47,73,212)" stroke="none" d="M 3537,3120 L 3567,3143 2205,4869 2175,4845 3537,3120 Z "/>
         <path fill="rgb(47,72,212)" stroke="none" d="M 3552,3131 L 3582,3155 2219,4880 2189,4856 3552,3131 Z "/>
         <path fill="rgb(47,71,211)" stroke="none" d="M 3566,3142 L 3596,3166 2233,4891 2203,4868 3566,3142 Z "/>
         <path fill="rgb(47,70,211)" stroke="none" d="M 3580,3154 L 3610,3177 2248,4903 2218,4879 3580,3154 Z "/>
         <path fill="rgb(48,69,211)" stroke="none" d="M 3595,3165 L 3625,3188 2262,4914 2232,4890 3595,3165 Z "/>
         <path fill="rgb(48,68,210)" stroke="none" d="M 3609,3176 L 3639,3200 2276,4925 2246,4901 3609,3176 Z "/>
         <path fill="rgb(48,67,210)" stroke="none" d="M 3623,3187 L 3661,3217 2299,4943 2260,4913 3623,3187 Z "/>
         <path fill="rgb(49,67,210)" stroke="none" d="M 3646,3205 L 3684,3235 2321,4960 2283,4930 3646,3205 Z "/>
         <path fill="rgb(50,67,211)" stroke="none" d="M 3668,3223 L 3706,3253 2343,4978 2305,4948 3668,3223 Z "/>
         <path fill="rgb(51,67,211)" stroke="none" d="M 3690,3240 L 3728,3271 2366,4996 2328,4966 3690,3240 Z "/>
         <path fill="rgb(52,67,212)" stroke="none" d="M 3713,3258 L 3751,3288 2388,5014 2350,4983 3713,3258 Z "/>
         <path fill="rgb(52,67,212)" stroke="none" d="M 3735,3276 L 3773,3306 2411,5031 2372,5001 3735,3276 Z "/>
         <path fill="rgb(53,67,213)" stroke="none" d="M 3758,3294 L 3796,3324 2433,5049 2395,5019 3758,3294 Z "/>
         <path fill="rgb(54,67,213)" stroke="none" d="M 3780,3311 L 3818,3341 2455,5067 2417,5037 3780,3311 Z "/>
         <path fill="rgb(55,67,213)" stroke="none" d="M 3802,3329 L 3840,3359 2478,5084 2440,5054 3802,3329 Z "/>
         <path fill="rgb(56,67,214)" stroke="none" d="M 3825,3347 L 3863,3377 2500,5102 2462,5072 3825,3347 Z "/>
         <path fill="rgb(57,68,214)" stroke="none" d="M 3847,3364 L 3885,3394 2523,5120 2484,5090 3847,3364 Z "/>
         <path fill="rgb(58,68,215)" stroke="none" d="M 3870,3382 L 3908,3412 2545,5137 2507,5107 3870,3382 Z "/>
         <path fill="rgb(59,68,215)" stroke="none" d="M 3892,3400 L 3930,3430 2567,5155 2529,5125 3892,3400 Z "/>
         <path fill="rgb(60,68,216)" stroke="none" d="M 3914,3417 L 3952,3447 2590,5173 2552,5143 3914,3417 Z "/>
         <path fill="rgb(61,68,216)" stroke="none" d="M 3937,3435 L 3975,3465 2612,5190 2574,5160 3937,3435 Z "/>
         <path fill="rgb(61,68,216)" stroke="none" d="M 3959,3453 L 3997,3483 2634,5208 2596,5178 3959,3453 Z "/>
         <path fill="rgb(62,68,217)" stroke="none" d="M 3982,3470 L 4020,3500 2657,5226 2619,5196 3982,3470 Z "/>
         <path fill="rgb(63,68,217)" stroke="none" d="M 4004,3488 L 4042,3518 2679,5244 2641,5213 4004,3488 Z "/>
         <path fill="rgb(64,68,218)" stroke="none" d="M 4026,3506 L 4064,3536 2702,5261 2664,5231 4026,3506 Z "/>
         <path fill="rgb(65,68,218)" stroke="none" d="M 4049,3524 L 4087,3554 2724,5279 2686,5249 4049,3524 Z "/>
         <path fill="rgb(66,68,218)" stroke="none" d="M 4071,3541 L 4109,3571 2746,5297 2708,5267 4071,3541 Z "/>
         <path fill="rgb(67,68,219)" stroke="none" d="M 4094,3559 L 4132,3589 2769,5314 2731,5284 4094,3559 Z "/>
         <path fill="rgb(68,68,219)" stroke="none" d="M 4116,3577 L 4154,3607 2791,5332 2753,5302 4116,3577 Z "/>
         <path fill="rgb(69,68,220)" stroke="none" d="M 4138,3594 L 4176,3624 2814,5350 2776,5320 4138,3594 Z "/>
         <path fill="rgb(70,68,220)" stroke="none" d="M 4161,3612 L 4199,3642 2836,5367 2798,5337 4161,3612 Z "/>
         <path fill="rgb(70,68,221)" stroke="none" d="M 4183,3630 L 4221,3660 2858,5385 2820,5355 4183,3630 Z "/>
         <path fill="rgb(71,68,221)" stroke="none" d="M 4205,3647 L 4244,3677 2881,5403 2843,5373 4205,3647 Z "/>
         <path fill="rgb(72,68,221)" stroke="none" d="M 4228,3665 L 4266,3695 2903,5420 2865,5390 4228,3665 Z "/>
         <path fill="rgb(73,68,222)" stroke="none" d="M 4250,3683 L 4288,3713 2926,5438 2888,5408 4250,3683 Z "/>
         <path fill="rgb(74,68,222)" stroke="none" d="M 4273,3700 L 4311,3730 2948,5456 2910,5426 4273,3700 Z "/>
         <path fill="rgb(75,69,223)" stroke="none" d="M 4295,3718 L 4333,3748 2970,5473 2932,5443 4295,3718 Z "/>
         <path fill="rgb(76,69,223)" stroke="none" d="M 4317,3736 L 4356,3766 2993,5491 2955,5461 4317,3736 Z "/>
         <path fill="rgb(77,69,224)" stroke="none" d="M 4340,3753 L 4378,3784 3015,5509 2977,5479 4340,3753 Z "/>
         <path fill="rgb(78,69,224)" stroke="none" d="M 4362,3771 L 4400,3801 3038,5527 3000,5496 4362,3771 Z "/>
         <path fill="rgb(79,69,224)" stroke="none" d="M 4385,3789 L 4423,3819 3060,5544 3022,5514 4385,3789 Z "/>
         <path fill="rgb(79,69,225)" stroke="none" d="M 4407,3807 L 4445,3837 3082,5562 3044,5532 4407,3807 Z "/>
         <path fill="rgb(80,69,225)" stroke="none" d="M 4429,3824 L 4467,3854 3105,5580 3067,5550 4429,3824 Z "/>
         <path fill="rgb(81,69,226)" stroke="none" d="M 4452,3842 L 4490,3872 3127,5597 3089,5567 4452,3842 Z "/>
         <path fill="rgb(82,69,226)" stroke="none" d="M 4474,3860 L 4512,3890 3150,5615 3112,5585 4474,3860 Z "/>
         <path fill="rgb(83,69,227)" stroke="none" d="M 4497,3877 L 4535,3907 3172,5633 3134,5603 4497,3877 Z "/>
         <path fill="rgb(84,69,227)" stroke="none" d="M 4519,3895 L 4557,3925 3194,5650 3156,5620 4519,3895 Z "/>
         <path fill="rgb(85,69,227)" stroke="none" d="M 4541,3913 L 4579,3943 3217,5668 3179,5638 4541,3913 Z "/>
         <path fill="rgb(86,69,228)" stroke="none" d="M 4564,3930 L 4602,3960 3239,5686 3201,5656 4564,3930 Z "/>
         <path fill="rgb(87,69,228)" stroke="none" d="M 4586,3948 L 4624,3978 3262,5703 3224,5673 4586,3948 Z "/>
         <path fill="rgb(88,69,229)" stroke="none" d="M 4609,3966 L 4647,3996 3284,5721 3246,5691 4609,3966 Z "/>
         <path fill="rgb(88,69,229)" stroke="none" d="M 4631,3983 L 4669,4013 3306,5739 3268,5709 4631,3983 Z "/>
         <path fill="rgb(89,69,229)" stroke="none" d="M 4653,4001 L 4691,4031 3329,5756 3291,5726 4653,4001 Z "/>
         <path fill="rgb(90,69,230)" stroke="none" d="M 4676,4019 L 4714,4049 3351,5774 3313,5744 4676,4019 Z "/>
         <path fill="rgb(91,69,230)" stroke="none" d="M 4698,4037 L 4736,4067 3374,5792 3336,5762 4698,4037 Z "/>
         <path fill="rgb(92,69,231)" stroke="none" d="M 4721,4054 L 4759,4084 3396,5810 3358,5780 4721,4054 Z "/>
         <path fill="rgb(93,70,231)" stroke="none" d="M 4743,4072 L 4781,4102 3418,5827 3380,5797 4743,4072 Z "/>
         <path fill="rgb(94,70,232)" stroke="none" d="M 4765,4090 L 4803,4120 3441,5845 3403,5815 4765,4090 Z "/>
         <path fill="rgb(95,70,232)" stroke="none" d="M 4788,4107 L 4826,4137 3463,5863 3425,5833 4788,4107 Z "/>
         <path fill="rgb(96,70,232)" stroke="none" d="M 4810,4125 L 4848,4155 3486,5880 3448,5850 4810,4125 Z "/>
         <path fill="rgb(97,70,233)" stroke="none" d="M 4833,4143 L 4871,4173 3508,5898 3470,5868 4833,4143 Z "/>
         <path fill="rgb(97,70,233)" stroke="none" d="M 4855,4160 L 4893,4190 3530,5916 3492,5886 4855,4160 Z "/>
         <path fill="rgb(98,70,234)" stroke="none" d="M 4877,4178 L 4915,4208 3553,5933 3515,5903 4877,4178 Z "/>
         <path fill="rgb(99,70,234)" stroke="none" d="M 4900,4196 L 4938,4226 3575,5951 3537,5921 4900,4196 Z "/>
         <path fill="rgb(100,70,235)" stroke="none" d="M 4922,4213 L 4960,4243 3598,5969 3560,5939 4922,4213 Z "/>
         <path fill="rgb(101,70,235)" stroke="none" d="M 4945,4231 L 5151,4394 3789,6120 3582,5956 4945,4231 Z "/>
        </g>
        <defs>
         <clipPath id="clip_path_4" clipPathUnits="userSpaceOnUse">
          <path d="M 1076,3133 C 1076,3133 235,3753 879,3983 1150,4080 1360,4068 1629,4068 2266,4066 3142,3805 3436,3721 3789,3619 5537,2986 5746,2544 5905,2208 4983,2177 4983,2177 4983,2177 6152,1985 6155,2541 6160,3238 3735,4012 3735,4012 3735,4012 3099,4226 2448,4328 2087,4384 1031,4510 576,4233 24,3802 685,3358 1076,3133 L 1076,3133 Z "/>
         </clipPath>
        </defs>
        <g clip-path="url(#clip_path_4)">
         <path fill="rgb(21,186,250)" stroke="none" d="M 3212,-10 L 3233,7 102,3848 81,3831 3212,-10 Z "/>
         <path fill="rgb(21,185,250)" stroke="none" d="M 3227,2 L 3248,19 117,3860 96,3843 3227,2 Z "/>
         <path fill="rgb(21,184,249)" stroke="none" d="M 3242,14 L 3263,31 132,3872 111,3855 3242,14 Z "/>
         <path fill="rgb(22,183,249)" stroke="none" d="M 3257,26 L 3278,43 146,3884 125,3867 3257,26 Z "/>
         <path fill="rgb(22,182,249)" stroke="none" d="M 3271,38 L 3292,55 161,3896 140,3879 3271,38 Z "/>
         <path fill="rgb(22,181,248)" stroke="none" d="M 3286,50 L 3307,67 176,3908 155,3891 3286,50 Z "/>
         <path fill="rgb(22,180,248)" stroke="none" d="M 3301,62 L 3322,80 191,3920 170,3903 3301,62 Z "/>
         <path fill="rgb(22,179,248)" stroke="none" d="M 3316,74 L 3337,92 206,3932 185,3915 3316,74 Z "/>
         <path fill="rgb(23,179,248)" stroke="none" d="M 3330,87 L 3351,104 220,3944 199,3927 3330,87 Z "/>
         <path fill="rgb(23,178,247)" stroke="none" d="M 3345,99 L 3366,116 235,3956 214,3939 3345,99 Z "/>
         <path fill="rgb(23,177,247)" stroke="none" d="M 3360,111 L 3381,128 250,3968 229,3951 3360,111 Z "/>
         <path fill="rgb(23,176,247)" stroke="none" d="M 3375,123 L 3396,140 265,3980 244,3963 3375,123 Z "/>
         <path fill="rgb(24,175,246)" stroke="none" d="M 3390,135 L 3411,152 279,3992 258,3975 3390,135 Z "/>
         <path fill="rgb(24,174,246)" stroke="none" d="M 3404,147 L 3425,164 294,4004 273,3987 3404,147 Z "/>
         <path fill="rgb(24,173,246)" stroke="none" d="M 3419,159 L 3440,176 309,4016 288,3999 3419,159 Z "/>
         <path fill="rgb(24,172,245)" stroke="none" d="M 3434,171 L 3455,188 324,4028 303,4011 3434,171 Z "/>
         <path fill="rgb(24,171,245)" stroke="none" d="M 3449,183 L 3470,200 339,4040 318,4023 3449,183 Z "/>
         <path fill="rgb(25,170,245)" stroke="none" d="M 3463,195 L 3484,212 353,4052 332,4035 3463,195 Z "/>
         <path fill="rgb(25,169,244)" stroke="none" d="M 3478,207 L 3499,224 368,4065 347,4047 3478,207 Z "/>
         <path fill="rgb(25,168,244)" stroke="none" d="M 3493,219 L 3514,236 383,4077 362,4059 3493,219 Z "/>
         <path fill="rgb(25,167,244)" stroke="none" d="M 3508,231 L 3529,248 398,4089 377,4071 3508,231 Z "/>
         <path fill="rgb(25,166,243)" stroke="none" d="M 3523,243 L 3544,260 412,4101 391,4084 3523,243 Z "/>
         <path fill="rgb(26,166,243)" stroke="none" d="M 3537,255 L 3558,272 427,4113 406,4096 3537,255 Z "/>
         <path fill="rgb(26,165,243)" stroke="none" d="M 3552,267 L 3573,284 442,4125 421,4108 3552,267 Z "/>
         <path fill="rgb(26,164,243)" stroke="none" d="M 3567,279 L 3588,296 457,4137 436,4120 3567,279 Z "/>
         <path fill="rgb(26,163,242)" stroke="none" d="M 3582,291 L 3603,308 471,4149 450,4132 3582,291 Z "/>
         <path fill="rgb(26,162,242)" stroke="none" d="M 3596,303 L 3617,320 486,4161 465,4144 3596,303 Z "/>
         <path fill="rgb(27,161,242)" stroke="none" d="M 3611,315 L 3632,332 501,4173 480,4156 3611,315 Z "/>
         <path fill="rgb(27,160,241)" stroke="none" d="M 3626,327 L 3647,344 516,4185 495,4168 3626,327 Z "/>
         <path fill="rgb(27,159,241)" stroke="none" d="M 3641,339 L 3662,357 531,4197 510,4180 3641,339 Z "/>
         <path fill="rgb(27,158,241)" stroke="none" d="M 3655,351 L 3676,369 545,4209 524,4192 3655,351 Z "/>
         <path fill="rgb(28,157,240)" stroke="none" d="M 3670,364 L 3691,381 560,4221 539,4204 3670,364 Z "/>
         <path fill="rgb(28,156,240)" stroke="none" d="M 3685,376 L 3706,393 575,4233 554,4216 3685,376 Z "/>
         <path fill="rgb(28,155,240)" stroke="none" d="M 3700,388 L 3721,405 590,4245 569,4228 3700,388 Z "/>
         <path fill="rgb(28,154,239)" stroke="none" d="M 3715,400 L 3736,417 604,4257 583,4240 3715,400 Z "/>
         <path fill="rgb(28,153,239)" stroke="none" d="M 3729,412 L 3750,429 619,4269 598,4252 3729,412 Z "/>
         <path fill="rgb(29,153,239)" stroke="none" d="M 3744,424 L 3765,441 634,4281 613,4264 3744,424 Z "/>
         <path fill="rgb(29,152,238)" stroke="none" d="M 3759,436 L 3780,453 649,4293 628,4276 3759,436 Z "/>
         <path fill="rgb(29,151,238)" stroke="none" d="M 3774,448 L 3795,465 663,4305 642,4288 3774,448 Z "/>
         <path fill="rgb(29,150,238)" stroke="none" d="M 3788,460 L 3809,477 678,4317 657,4300 3788,460 Z "/>
         <path fill="rgb(29,149,237)" stroke="none" d="M 3803,472 L 3824,489 693,4329 672,4312 3803,472 Z "/>
         <path fill="rgb(30,148,237)" stroke="none" d="M 3818,484 L 3839,501 708,4341 687,4324 3818,484 Z "/>
         <path fill="rgb(30,147,237)" stroke="none" d="M 3833,496 L 3854,513 723,4354 702,4336 3833,496 Z "/>
         <path fill="rgb(30,146,237)" stroke="none" d="M 3847,508 L 3868,525 737,4366 716,4348 3847,508 Z "/>
         <path fill="rgb(30,145,236)" stroke="none" d="M 3862,520 L 3883,537 752,4378 731,4361 3862,520 Z "/>
         <path fill="rgb(30,144,236)" stroke="none" d="M 3877,532 L 3898,549 767,4390 746,4373 3877,532 Z "/>
         <path fill="rgb(31,143,236)" stroke="none" d="M 3892,544 L 3913,561 782,4402 761,4385 3892,544 Z "/>
         <path fill="rgb(31,142,235)" stroke="none" d="M 3907,556 L 3928,573 796,4414 775,4397 3907,556 Z "/>
         <path fill="rgb(31,141,235)" stroke="none" d="M 3921,568 L 3942,585 811,4426 790,4409 3921,568 Z "/>
         <path fill="rgb(31,140,235)" stroke="none" d="M 3936,580 L 3957,597 826,4438 805,4421 3936,580 Z "/>
         <path fill="rgb(32,140,234)" stroke="none" d="M 3951,592 L 3972,609 841,4450 820,4433 3951,592 Z "/>
         <path fill="rgb(32,139,234)" stroke="none" d="M 3966,604 L 3987,621 856,4462 835,4445 3966,604 Z "/>
         <path fill="rgb(32,138,234)" stroke="none" d="M 3980,616 L 4001,634 870,4474 849,4457 3980,616 Z "/>
         <path fill="rgb(32,137,233)" stroke="none" d="M 3995,628 L 4016,646 885,4486 864,4469 3995,628 Z "/>
         <path fill="rgb(32,136,233)" stroke="none" d="M 4010,640 L 4031,658 900,4498 879,4481 4010,640 Z "/>
         <path fill="rgb(33,135,233)" stroke="none" d="M 4025,653 L 4046,670 915,4510 894,4493 4025,653 Z "/>
         <path fill="rgb(33,134,233)" stroke="none" d="M 4040,665 L 4061,682 929,4522 908,4505 4040,665 Z "/>
         <path fill="rgb(33,133,232)" stroke="none" d="M 4054,677 L 4075,694 944,4534 923,4517 4054,677 Z "/>
         <path fill="rgb(33,132,232)" stroke="none" d="M 4069,689 L 4090,706 959,4546 938,4529 4069,689 Z "/>
         <path fill="rgb(33,131,232)" stroke="none" d="M 4084,701 L 4105,718 974,4558 953,4541 4084,701 Z "/>
         <path fill="rgb(34,130,231)" stroke="none" d="M 4099,713 L 4120,730 988,4570 967,4553 4099,713 Z "/>
         <path fill="rgb(34,129,231)" stroke="none" d="M 4113,725 L 4134,742 1003,4582 982,4565 4113,725 Z "/>
         <path fill="rgb(34,128,231)" stroke="none" d="M 4128,737 L 4149,754 1018,4594 997,4577 4128,737 Z "/>
         <path fill="rgb(34,127,230)" stroke="none" d="M 4143,749 L 4164,766 1033,4606 1012,4589 4143,749 Z "/>
         <path fill="rgb(35,127,230)" stroke="none" d="M 4158,761 L 4179,778 1048,4618 1027,4601 4158,761 Z "/>
         <path fill="rgb(35,126,230)" stroke="none" d="M 4172,773 L 4193,790 1062,4631 1041,4613 4172,773 Z "/>
         <path fill="rgb(35,125,229)" stroke="none" d="M 4187,785 L 4208,802 1077,4643 1056,4625 4187,785 Z "/>
         <path fill="rgb(35,124,229)" stroke="none" d="M 4202,797 L 4223,814 1092,4655 1071,4638 4202,797 Z "/>
         <path fill="rgb(35,123,229)" stroke="none" d="M 4217,809 L 4238,826 1107,4667 1086,4650 4217,809 Z "/>
         <path fill="rgb(36,122,228)" stroke="none" d="M 4232,821 L 4253,838 1121,4679 1100,4662 4232,821 Z "/>
         <path fill="rgb(36,121,228)" stroke="none" d="M 4246,833 L 4267,850 1136,4691 1115,4674 4246,833 Z "/>
         <path fill="rgb(36,120,228)" stroke="none" d="M 4261,845 L 4282,862 1151,4703 1130,4686 4261,845 Z "/>
         <path fill="rgb(36,119,227)" stroke="none" d="M 4276,857 L 4297,874 1166,4715 1145,4698 4276,857 Z "/>
         <path fill="rgb(36,118,227)" stroke="none" d="M 4291,869 L 4312,886 1180,4727 1159,4710 4291,869 Z "/>
         <path fill="rgb(37,117,227)" stroke="none" d="M 4305,881 L 4326,898 1195,4739 1174,4722 4305,881 Z "/>
         <path fill="rgb(37,116,227)" stroke="none" d="M 4320,893 L 4341,911 1210,4751 1189,4734 4320,893 Z "/>
         <path fill="rgb(37,115,226)" stroke="none" d="M 4335,905 L 4356,923 1225,4763 1204,4746 4335,905 Z "/>
         <path fill="rgb(37,114,226)" stroke="none" d="M 4350,917 L 4371,935 1240,4775 1219,4758 4350,917 Z "/>
         <path fill="rgb(37,113,226)" stroke="none" d="M 4364,930 L 4385,947 1254,4787 1233,4770 4364,930 Z "/>
         <path fill="rgb(38,113,225)" stroke="none" d="M 4379,942 L 4400,959 1269,4799 1248,4782 4379,942 Z "/>
         <path fill="rgb(38,112,225)" stroke="none" d="M 4394,954 L 4415,971 1284,4811 1263,4794 4394,954 Z "/>
         <path fill="rgb(38,111,225)" stroke="none" d="M 4409,966 L 4430,983 1299,4823 1278,4806 4409,966 Z "/>
         <path fill="rgb(38,110,224)" stroke="none" d="M 4424,978 L 4445,995 1313,4835 1292,4818 4424,978 Z "/>
         <path fill="rgb(39,109,224)" stroke="none" d="M 4438,990 L 4459,1007 1328,4847 1307,4830 4438,990 Z "/>
         <path fill="rgb(39,108,224)" stroke="none" d="M 4453,1002 L 4474,1019 1343,4859 1322,4842 4453,1002 Z "/>
         <path fill="rgb(39,107,223)" stroke="none" d="M 4468,1014 L 4489,1031 1358,4871 1337,4854 4468,1014 Z "/>
         <path fill="rgb(39,106,223)" stroke="none" d="M 4483,1026 L 4504,1043 1373,4883 1352,4866 4483,1026 Z "/>
         <path fill="rgb(39,105,223)" stroke="none" d="M 4497,1038 L 4518,1055 1387,4895 1366,4878 4497,1038 Z "/>
         <path fill="rgb(40,104,223)" stroke="none" d="M 4512,1050 L 4533,1067 1402,4908 1381,4890 4512,1050 Z "/>
         <path fill="rgb(40,103,222)" stroke="none" d="M 4527,1062 L 4548,1079 1417,4920 1396,4902 4527,1062 Z "/>
         <path fill="rgb(40,102,222)" stroke="none" d="M 4542,1074 L 4563,1091 1432,4932 1411,4915 4542,1074 Z "/>
         <path fill="rgb(40,101,222)" stroke="none" d="M 4557,1086 L 4578,1103 1446,4944 1425,4927 4557,1086 Z "/>
         <path fill="rgb(40,100,221)" stroke="none" d="M 4571,1098 L 4592,1115 1461,4956 1440,4939 4571,1098 Z "/>
         <path fill="rgb(41,100,221)" stroke="none" d="M 4586,1110 L 4607,1127 1476,4968 1455,4951 4586,1110 Z "/>
         <path fill="rgb(41,99,221)" stroke="none" d="M 4601,1122 L 4622,1139 1491,4980 1470,4963 4601,1122 Z "/>
         <path fill="rgb(41,98,220)" stroke="none" d="M 4616,1134 L 4637,1151 1505,4992 1484,4975 4616,1134 Z "/>
         <path fill="rgb(41,97,220)" stroke="none" d="M 4630,1146 L 4651,1163 1520,5004 1499,4987 4630,1146 Z "/>
         <path fill="rgb(41,96,220)" stroke="none" d="M 4645,1158 L 4666,1175 1535,5016 1514,4999 4645,1158 Z "/>
         <path fill="rgb(42,95,219)" stroke="none" d="M 4660,1170 L 4681,1188 1550,5028 1529,5011 4660,1170 Z "/>
         <path fill="rgb(42,94,219)" stroke="none" d="M 4675,1182 L 4696,1200 1565,5040 1544,5023 4675,1182 Z "/>
         <path fill="rgb(42,93,219)" stroke="none" d="M 4689,1194 L 4710,1212 1579,5052 1558,5035 4689,1194 Z "/>
         <path fill="rgb(42,92,218)" stroke="none" d="M 4704,1207 L 4725,1224 1594,5064 1573,5047 4704,1207 Z "/>
         <path fill="rgb(43,91,218)" stroke="none" d="M 4719,1219 L 4740,1236 1609,5076 1588,5059 4719,1219 Z "/>
         <path fill="rgb(43,90,218)" stroke="none" d="M 4734,1231 L 4755,1248 1624,5088 1603,5071 4734,1231 Z "/>
         <path fill="rgb(43,89,218)" stroke="none" d="M 4749,1243 L 4770,1260 1638,5100 1617,5083 4749,1243 Z "/>
         <path fill="rgb(43,88,217)" stroke="none" d="M 4763,1255 L 4784,1272 1653,5112 1632,5095 4763,1255 Z "/>
         <path fill="rgb(43,87,217)" stroke="none" d="M 4778,1267 L 4799,1284 1668,5124 1647,5107 4778,1267 Z "/>
         <path fill="rgb(44,87,217)" stroke="none" d="M 4793,1279 L 4814,1296 1683,5136 1662,5119 4793,1279 Z "/>
         <path fill="rgb(44,86,216)" stroke="none" d="M 4808,1291 L 4829,1308 1697,5148 1677,5131 4808,1291 Z "/>
         <path fill="rgb(44,85,216)" stroke="none" d="M 4822,1303 L 4843,1320 1712,5160 1691,5143 4822,1303 Z "/>
         <path fill="rgb(44,84,216)" stroke="none" d="M 4837,1315 L 4858,1332 1727,5172 1706,5155 4837,1315 Z "/>
         <path fill="rgb(44,83,215)" stroke="none" d="M 4852,1327 L 4873,1344 1742,5185 1721,5167 4852,1327 Z "/>
         <path fill="rgb(45,82,215)" stroke="none" d="M 4867,1339 L 4888,1356 1757,5197 1736,5179 4867,1339 Z "/>
         <path fill="rgb(45,81,215)" stroke="none" d="M 4881,1351 L 4902,1368 1771,5209 1750,5191 4881,1351 Z "/>
         <path fill="rgb(45,80,214)" stroke="none" d="M 4896,1363 L 4917,1380 1786,5221 1765,5204 4896,1363 Z "/>
         <path fill="rgb(45,79,214)" stroke="none" d="M 4911,1375 L 4932,1392 1801,5233 1780,5216 4911,1375 Z "/>
         <path fill="rgb(45,78,214)" stroke="none" d="M 4926,1387 L 4947,1404 1816,5245 1795,5228 4926,1387 Z "/>
         <path fill="rgb(46,77,213)" stroke="none" d="M 4941,1399 L 4962,1416 1830,5257 1809,5240 4941,1399 Z "/>
         <path fill="rgb(46,76,213)" stroke="none" d="M 4955,1411 L 4976,1428 1845,5269 1824,5252 4955,1411 Z "/>
         <path fill="rgb(46,75,213)" stroke="none" d="M 4970,1423 L 4991,1440 1860,5281 1839,5264 4970,1423 Z "/>
         <path fill="rgb(46,74,212)" stroke="none" d="M 4985,1435 L 5006,1452 1875,5293 1854,5276 4985,1435 Z "/>
         <path fill="rgb(47,74,212)" stroke="none" d="M 5000,1447 L 5021,1465 1890,5305 1869,5288 5000,1447 Z "/>
         <path fill="rgb(47,73,212)" stroke="none" d="M 5014,1459 L 5035,1477 1904,5317 1883,5300 5014,1459 Z "/>
         <path fill="rgb(47,72,212)" stroke="none" d="M 5029,1471 L 5050,1489 1919,5329 1898,5312 5029,1471 Z "/>
         <path fill="rgb(47,71,211)" stroke="none" d="M 5044,1484 L 5065,1501 1934,5341 1913,5324 5044,1484 Z "/>
         <path fill="rgb(47,70,211)" stroke="none" d="M 5059,1496 L 5080,1513 1949,5353 1928,5336 5059,1496 Z "/>
         <path fill="rgb(48,69,211)" stroke="none" d="M 5074,1508 L 5095,1525 1963,5365 1942,5348 5074,1508 Z "/>
         <path fill="rgb(48,68,210)" stroke="none" d="M 5088,1520 L 5109,1537 1978,5377 1957,5360 5088,1520 Z "/>
         <path fill="rgb(48,67,210)" stroke="none" d="M 5103,1532 L 5132,1556 2001,5396 1972,5372 5103,1532 Z "/>
         <path fill="rgb(49,67,210)" stroke="none" d="M 5126,1551 L 5156,1575 2024,5415 1995,5391 5126,1551 Z "/>
         <path fill="rgb(50,67,211)" stroke="none" d="M 5149,1569 L 5179,1593 2048,5434 2018,5410 5149,1569 Z "/>
         <path fill="rgb(51,67,211)" stroke="none" d="M 5173,1588 L 5202,1612 2071,5453 2041,5429 5173,1588 Z "/>
         <path fill="rgb(52,67,212)" stroke="none" d="M 5196,1607 L 5225,1631 2094,5472 2065,5448 5196,1607 Z "/>
         <path fill="rgb(52,67,212)" stroke="none" d="M 5219,1626 L 5248,1650 2117,5490 2088,5467 5219,1626 Z "/>
         <path fill="rgb(53,67,213)" stroke="none" d="M 5242,1645 L 5271,1669 2140,5509 2111,5485 5242,1645 Z "/>
         <path fill="rgb(54,67,213)" stroke="none" d="M 5265,1664 L 5295,1688 2163,5528 2134,5504 5265,1664 Z "/>
         <path fill="rgb(55,67,213)" stroke="none" d="M 5288,1683 L 5318,1707 2187,5547 2157,5523 5288,1683 Z "/>
         <path fill="rgb(56,67,214)" stroke="none" d="M 5311,1702 L 5341,1726 2210,5566 2180,5542 5311,1702 Z "/>
         <path fill="rgb(57,68,214)" stroke="none" d="M 5335,1720 L 5364,1744 2233,5585 2203,5561 5335,1720 Z "/>
         <path fill="rgb(58,68,215)" stroke="none" d="M 5358,1739 L 5387,1763 2256,5604 2227,5580 5358,1739 Z "/>
         <path fill="rgb(59,68,215)" stroke="none" d="M 5381,1758 L 5410,1782 2279,5623 2250,5599 5381,1758 Z "/>
         <path fill="rgb(60,68,216)" stroke="none" d="M 5404,1777 L 5433,1801 2302,5641 2273,5618 5404,1777 Z "/>
         <path fill="rgb(61,68,216)" stroke="none" d="M 5427,1796 L 5457,1820 2325,5660 2296,5636 5427,1796 Z "/>
         <path fill="rgb(61,68,216)" stroke="none" d="M 5450,1815 L 5480,1839 2349,5679 2319,5655 5450,1815 Z "/>
         <path fill="rgb(62,68,217)" stroke="none" d="M 5473,1834 L 5503,1858 2372,5698 2342,5674 5473,1834 Z "/>
         <path fill="rgb(63,68,217)" stroke="none" d="M 5497,1853 L 5526,1877 2395,5717 2366,5693 5497,1853 Z "/>
         <path fill="rgb(64,68,218)" stroke="none" d="M 5520,1871 L 5549,1895 2418,5736 2389,5712 5520,1871 Z "/>
         <path fill="rgb(65,68,218)" stroke="none" d="M 5543,1890 L 5572,1914 2441,5755 2412,5731 5543,1890 Z "/>
         <path fill="rgb(66,68,218)" stroke="none" d="M 5566,1909 L 5595,1933 2464,5774 2435,5750 5566,1909 Z "/>
         <path fill="rgb(67,68,219)" stroke="none" d="M 5589,1928 L 5619,1952 2487,5792 2458,5769 5589,1928 Z "/>
         <path fill="rgb(68,68,219)" stroke="none" d="M 5612,1947 L 5642,1971 2511,5811 2481,5787 5612,1947 Z "/>
         <path fill="rgb(69,68,220)" stroke="none" d="M 5636,1966 L 5665,1990 2534,5830 2504,5806 5636,1966 Z "/>
         <path fill="rgb(70,68,220)" stroke="none" d="M 5659,1985 L 5688,2009 2557,5849 2528,5825 5659,1985 Z "/>
         <path fill="rgb(70,68,221)" stroke="none" d="M 5682,2004 L 5711,2028 2580,5868 2551,5844 5682,2004 Z "/>
         <path fill="rgb(71,68,221)" stroke="none" d="M 5705,2022 L 5734,2046 2603,5887 2574,5863 5705,2022 Z "/>
         <path fill="rgb(72,68,221)" stroke="none" d="M 5728,2041 L 5758,2065 2626,5906 2597,5882 5728,2041 Z "/>
         <path fill="rgb(73,68,222)" stroke="none" d="M 5751,2060 L 5781,2084 2650,5925 2620,5901 5751,2060 Z "/>
         <path fill="rgb(74,68,222)" stroke="none" d="M 5774,2079 L 5804,2103 2673,5943 2643,5920 5774,2079 Z "/>
         <path fill="rgb(75,69,223)" stroke="none" d="M 5798,2098 L 5827,2122 2696,5962 2666,5938 5798,2098 Z "/>
         <path fill="rgb(76,69,223)" stroke="none" d="M 5821,2117 L 5850,2141 2719,5981 2690,5957 5821,2117 Z "/>
         <path fill="rgb(77,69,224)" stroke="none" d="M 5844,2136 L 5873,2160 2742,6000 2713,5976 5844,2136 Z "/>
         <path fill="rgb(78,69,224)" stroke="none" d="M 5867,2155 L 5896,2179 2765,6019 2736,5995 5867,2155 Z "/>
         <path fill="rgb(79,69,224)" stroke="none" d="M 5890,2173 L 5920,2197 2788,6038 2759,6014 5890,2173 Z "/>
         <path fill="rgb(79,69,225)" stroke="none" d="M 5913,2192 L 5943,2216 2812,6057 2782,6033 5913,2192 Z "/>
         <path fill="rgb(80,69,225)" stroke="none" d="M 5937,2211 L 5966,2235 2835,6076 2805,6052 5937,2211 Z "/>
         <path fill="rgb(81,69,226)" stroke="none" d="M 5960,2230 L 5989,2254 2858,6095 2829,6071 5960,2230 Z "/>
         <path fill="rgb(82,69,226)" stroke="none" d="M 5983,2249 L 6012,2273 2881,6113 2852,6089 5983,2249 Z "/>
         <path fill="rgb(83,69,227)" stroke="none" d="M 6006,2268 L 6035,2292 2904,6132 2875,6108 6006,2268 Z "/>
         <path fill="rgb(84,69,227)" stroke="none" d="M 6029,2287 L 6059,2311 2927,6151 2898,6127 6029,2287 Z "/>
         <path fill="rgb(85,69,227)" stroke="none" d="M 6052,2306 L 6082,2330 2951,6170 2921,6146 6052,2306 Z "/>
         <path fill="rgb(86,69,228)" stroke="none" d="M 6075,2324 L 6105,2348 2974,6189 2944,6165 6075,2324 Z "/>
         <path fill="rgb(87,69,228)" stroke="none" d="M 6099,2343 L 6128,2367 2997,6208 2967,6184 6099,2343 Z "/>
         <path fill="rgb(88,69,229)" stroke="none" d="M 6122,2362 L 6151,2386 3020,6227 2991,6203 6122,2362 Z "/>
         <path fill="rgb(88,69,229)" stroke="none" d="M 6145,2381 L 6174,2405 3043,6246 3014,6222 6145,2381 Z "/>
         <path fill="rgb(89,69,229)" stroke="none" d="M 6168,2400 L 6197,2424 3066,6264 3037,6240 6168,2400 Z "/>
         <path fill="rgb(90,69,230)" stroke="none" d="M 6191,2419 L 6221,2443 3089,6283 3060,6259 6191,2419 Z "/>
         <path fill="rgb(91,69,230)" stroke="none" d="M 6214,2438 L 6244,2462 3113,6302 3083,6278 6214,2438 Z "/>
         <path fill="rgb(92,69,231)" stroke="none" d="M 6238,2457 L 6267,2481 3136,6321 3106,6297 6238,2457 Z "/>
         <path fill="rgb(93,70,231)" stroke="none" d="M 6261,2475 L 6290,2499 3159,6340 3130,6316 6261,2475 Z "/>
         <path fill="rgb(94,70,232)" stroke="none" d="M 6284,2494 L 6313,2518 3182,6359 3153,6335 6284,2494 Z "/>
         <path fill="rgb(95,70,232)" stroke="none" d="M 6307,2513 L 6336,2537 3205,6378 3176,6354 6307,2513 Z "/>
         <path fill="rgb(96,70,232)" stroke="none" d="M 6330,2532 L 6359,2556 3228,6397 3199,6373 6330,2532 Z "/>
         <path fill="rgb(97,70,233)" stroke="none" d="M 6353,2551 L 6383,2575 3252,6415 3222,6391 6353,2551 Z "/>
         <path fill="rgb(97,70,233)" stroke="none" d="M 6376,2570 L 6406,2594 3275,6434 3245,6410 6376,2570 Z "/>
         <path fill="rgb(98,70,234)" stroke="none" d="M 6400,2589 L 6429,2613 3298,6453 3268,6429 6400,2589 Z "/>
         <path fill="rgb(99,70,234)" stroke="none" d="M 6423,2608 L 6452,2632 3321,6472 3292,6448 6423,2608 Z "/>
         <path fill="rgb(100,70,235)" stroke="none" d="M 6446,2627 L 6475,2650 3344,6491 3315,6467 6446,2627 Z "/>
        </g>
       </g>
      </g>
     </g>
    </g>
   </g>
  </g>
 </g>
</svg>